<svg width="255" height="68" viewBox="0 0 255 68" fill="none" xmlns="http://www.w3.org/2000/svg">
<g id="Group 1">
<g id="Group">
<path id="Vector" opacity="0.99" d="M19.8732 62.7549L26.8506 66.6052C28.1637 67.3285 29.755 67.3508 31.0904 66.6497L53.9143 54.0306C55.4389 53.1849 56.5183 51.7271 56.8855 50.0245L57.2083 48.5334H48.6729H32.4369C30.8901 48.5334 29.5325 47.5096 29.0985 46.0296L27.4404 40.3209L16.9131 47.4094C15.9338 48.066 15.5109 49.3012 15.8782 50.414L19.8732 62.7549Z" fill="#2D337B"/>
<path id="Vector_2" opacity="0.99" d="M5.93007 54.332L19.8737 62.767L15.9343 50.6375C15.5337 49.3911 16.0011 48.0335 17.0805 47.2991L27.4297 40.3219L19.8626 14.3937L8.77889 19.0118C6.87597 19.8019 5.46269 21.4488 4.97305 23.4518L0.165675 42.9147C-0.190427 44.3724 0.0321371 45.9192 0.788854 47.2212L3.5709 51.9506C4.16069 52.9298 4.96192 53.7533 5.93007 54.332Z" fill="#E51148"/>
<path id="Vector_3" d="M20.5967 44.9397L15.8338 28.0585C15.4889 26.8567 16.0564 25.577 17.1692 25.0095L22.2214 22.4278L27.4405 40.3327L20.5967 44.9397Z" fill="#F0E400"/>
<path id="Vector_4" opacity="0.99" d="M19.8735 14.4036L21.3425 19.4446L29.199 46.3966C29.5662 47.6651 30.7346 48.5331 32.0478 48.5331H48.6621H57.1975L59.9127 37.3606C60.1019 36.5817 60.1019 35.7805 59.9127 35.0015L57.2531 24.0405C57.2197 23.8958 57.1752 23.7511 57.1307 23.6065L54.3041 15.2605C53.8813 14.0253 52.991 13.0126 51.8226 12.434L26.8509 0.104195C26.0942 -0.274156 25.2484 0.438035 25.4933 1.25038L27.8079 8.87304C28.1418 9.99696 27.5854 11.1877 26.5059 11.6328L19.8735 14.4036Z" fill="#AD2685"/>
</g>
<g id="Group_2">
<g id="Group_3">
<path id="Vector_5" d="M79.3717 64.6631H78.8166C78.3887 64.6631 78.0533 64.5359 77.8104 64.2931C77.5676 64.0502 77.4519 63.7032 77.4519 63.2638V61.2399C77.4519 60.8005 77.5676 60.4535 77.8104 60.2107C78.0533 59.9678 78.3887 59.8406 78.8166 59.8406H79.3717C79.869 59.8406 80.1928 60.0025 80.3431 60.3379H80.3778V58.1405C80.3778 58.048 80.4241 58.0133 80.505 58.0133H80.9445C81.0255 58.0133 81.0717 58.0596 81.0717 58.1405V64.5243C81.0717 64.6169 81.0255 64.6516 80.9445 64.6516H80.505C80.4241 64.6516 80.3778 64.6053 80.3778 64.5243V64.1543H80.3431C80.1812 64.4897 79.8574 64.6631 79.3717 64.6631ZM80.3778 63.1828V61.3093C80.3778 61.0318 80.2969 60.812 80.1465 60.6617C79.9962 60.5113 79.7764 60.4304 79.4989 60.4304H78.9206C78.4002 60.4304 78.1342 60.7079 78.1342 61.2515V63.2175C78.1342 63.7611 78.4002 64.0386 78.9206 64.0386H79.4989C79.788 64.0386 79.9962 63.9577 80.1465 63.8073C80.3084 63.6801 80.3778 63.4604 80.3778 63.1828Z" fill="url(#paint0_linear_274_40595)"/>
<path id="Vector_6" d="M89.04 59.0427V58.1522C89.04 58.0597 89.0863 58.025 89.1673 58.025H89.6067C89.6992 58.025 89.7339 58.0713 89.7339 58.1522V59.0427C89.7339 59.1352 89.6877 59.1699 89.6067 59.1699H89.1673C89.0747 59.1699 89.04 59.1352 89.04 59.0427ZM89.04 64.5244V59.9679C89.04 59.8754 89.0863 59.8407 89.1673 59.8407H89.6067C89.6992 59.8407 89.7339 59.8869 89.7339 59.9679V64.5244C89.7339 64.617 89.6877 64.6517 89.6067 64.6517H89.1788C89.0863 64.6632 89.04 64.617 89.04 64.5244Z" fill="url(#paint1_linear_274_40595)"/>
<path id="Vector_7" d="M99.529 64.6633H98.997C98.5691 64.6633 98.2337 64.5361 97.9908 64.2932C97.748 64.0503 97.6323 63.7034 97.6323 63.2639V61.2516C97.6323 60.8122 97.7595 60.4652 98.0024 60.2224C98.2568 59.9795 98.5922 59.8523 99.0317 59.8523H101.09C101.183 59.8523 101.217 59.8986 101.217 59.9795V64.6864C101.217 65.1259 101.09 65.4612 100.847 65.7157C100.593 65.9701 100.258 66.0857 99.8181 66.0857H98.0834C97.9908 66.0857 97.9446 66.0395 97.9446 65.9585V65.6116C97.9446 65.5191 97.9908 65.4844 98.0834 65.4844H99.7371C100.269 65.4844 100.535 65.2184 100.535 64.6748V64.1776H100.5C100.327 64.4898 100.003 64.6633 99.529 64.6633ZM100.535 63.183V60.5346C100.535 60.4768 100.5 60.4537 100.443 60.4537H99.1242C98.5922 60.4537 98.3262 60.7312 98.3262 61.2748V63.2292C98.3262 63.7728 98.5922 64.0503 99.1242 64.0503H99.6562C99.9453 64.0503 100.153 63.9694 100.304 63.819C100.454 63.6803 100.535 63.4605 100.535 63.183Z" fill="url(#paint2_linear_274_40595)"/>
<path id="Vector_8" d="M109.197 59.0427V58.1522C109.197 58.0597 109.244 58.025 109.324 58.025H109.764C109.856 58.025 109.891 58.0713 109.891 58.1522V59.0427C109.891 59.1352 109.845 59.1699 109.764 59.1699H109.324C109.244 59.1699 109.197 59.1352 109.197 59.0427ZM109.197 64.5244V59.9679C109.197 59.8754 109.244 59.8407 109.324 59.8407H109.764C109.856 59.8407 109.891 59.8869 109.891 59.9679V64.5244C109.891 64.617 109.845 64.6517 109.764 64.6517H109.336C109.244 64.6632 109.197 64.617 109.197 64.5244Z" fill="url(#paint3_linear_274_40595)"/>
<path id="Vector_9" d="M118.045 60.442H117.524C117.432 60.442 117.397 60.3957 117.397 60.3148V59.9678C117.397 59.8753 117.443 59.8406 117.524 59.8406H118.045C118.102 59.8406 118.137 59.8175 118.137 59.7597V58.9501C118.137 58.8576 118.183 58.8229 118.264 58.8229H118.692C118.773 58.8229 118.819 58.8692 118.819 58.9501V59.7597C118.819 59.8175 118.854 59.8406 118.924 59.8406H119.93C120.022 59.8406 120.068 59.8869 120.068 59.9678V60.3148C120.068 60.3957 120.022 60.442 119.93 60.442H118.924C118.854 60.442 118.819 60.4651 118.819 60.5229V63.2523C118.819 63.7842 119.097 64.0618 119.652 64.0618H120.022C120.115 64.0618 120.161 64.108 120.161 64.189V64.536C120.161 64.6169 120.115 64.6632 120.022 64.6632H119.571C119.132 64.6632 118.785 64.5475 118.53 64.3046C118.276 64.0618 118.137 63.7264 118.137 63.2869V60.5345C118.137 60.4651 118.102 60.442 118.045 60.442Z" fill="url(#paint4_linear_274_40595)"/>
<path id="Vector_10" d="M129.586 64.6632H129.089C128.65 64.6632 128.314 64.536 128.06 64.2931C127.805 64.0502 127.69 63.7033 127.69 63.2638V61.24C127.69 60.8005 127.817 60.4536 128.06 60.2107C128.314 59.9679 128.65 59.8406 129.089 59.8406H131.148C131.24 59.8406 131.275 59.8869 131.275 59.9679V64.5244C131.275 64.6169 131.229 64.6516 131.148 64.6516H130.72C130.627 64.6516 130.592 64.6054 130.592 64.5244V64.1543H130.558C130.396 64.4897 130.072 64.6632 129.586 64.6632ZM130.592 63.1829V60.523C130.592 60.4651 130.558 60.442 130.5 60.442H129.17C128.65 60.442 128.384 60.7196 128.384 61.2631V63.2291C128.384 63.7727 128.65 64.0503 129.17 64.0503H129.714C130.003 64.0503 130.211 63.9693 130.361 63.8189C130.512 63.6802 130.592 63.4604 130.592 63.1829Z" fill="url(#paint5_linear_274_40595)"/>
<path id="Vector_11" d="M139.81 64.6632H139.382C139.29 64.6632 139.255 64.617 139.255 64.536V58.1522C139.255 58.0597 139.301 58.025 139.382 58.025H139.81C139.903 58.025 139.937 58.0713 139.937 58.1522V64.536C139.949 64.617 139.903 64.6632 139.81 64.6632Z" fill="url(#paint6_linear_274_40595)"/>
<path id="Vector_12" d="M158.591 64.6632H156.902C156.81 64.6632 156.775 64.6169 156.775 64.5359V64.2006C156.775 64.1196 156.821 64.0733 156.902 64.0733H158.487C158.984 64.0733 159.227 63.8883 159.227 63.5298V63.3448C159.227 63.0094 159.065 62.7781 158.741 62.6509L157.619 62.1767C157.296 62.0495 157.064 61.8876 156.925 61.7141C156.787 61.5291 156.717 61.2978 156.717 60.9971C156.717 60.2222 157.145 59.829 157.989 59.829H159.539C159.632 59.829 159.666 59.8753 159.666 59.9563V60.2916C159.666 60.3726 159.62 60.4188 159.539 60.4188H158.105C157.874 60.4188 157.7 60.4651 157.585 60.5576C157.469 60.6501 157.411 60.7658 157.411 60.893V61.0549C157.411 61.3209 157.596 61.5175 157.955 61.6563L159.077 62.1536C159.4 62.2808 159.632 62.4427 159.747 62.6509C159.863 62.859 159.921 63.1482 159.921 63.5067C159.944 64.2815 159.493 64.6632 158.591 64.6632Z" fill="url(#paint7_linear_274_40595)"/>
<path id="Vector_13" d="M169.786 64.6632H168.976C168.537 64.6632 168.201 64.536 167.947 64.2931C167.692 64.0502 167.577 63.7033 167.577 63.2638V61.24C167.577 60.8005 167.704 60.4536 167.947 60.2107C168.201 59.9679 168.537 59.8406 168.976 59.8406H169.786C170.225 59.8406 170.56 59.9679 170.815 60.2107C171.069 60.4536 171.185 60.8005 171.185 61.24V63.2638C171.185 63.7033 171.058 64.0502 170.815 64.2931C170.56 64.536 170.225 64.6632 169.786 64.6632ZM169.045 64.0503H169.705C170.237 64.0503 170.503 63.7843 170.503 63.2407V61.2516C170.503 60.708 170.237 60.442 169.705 60.442H169.045C168.513 60.442 168.247 60.708 168.247 61.2516V63.2407C168.259 63.7843 168.525 64.0503 169.045 64.0503Z" fill="url(#paint8_linear_274_40595)"/>
<path id="Vector_14" d="M179.628 64.6632H179.2C179.107 64.6632 179.073 64.617 179.073 64.536V58.1522C179.073 58.0597 179.119 58.025 179.2 58.025H179.628C179.72 58.025 179.755 58.0713 179.755 58.1522V64.536C179.766 64.617 179.72 64.6632 179.628 64.6632Z" fill="url(#paint9_linear_274_40595)"/>
<path id="Vector_15" d="M189.585 64.6632H189.053C188.625 64.6632 188.289 64.5359 188.046 64.2931C187.804 64.0502 187.688 63.7033 187.688 63.2638V59.9678C187.688 59.8753 187.734 59.8406 187.815 59.8406H188.243C188.336 59.8406 188.37 59.8869 188.37 59.9678V63.2291C188.37 63.7727 188.636 64.0502 189.157 64.0502H189.7C189.989 64.0502 190.198 63.9693 190.348 63.8189C190.498 63.6686 190.579 63.4488 190.579 63.1713V59.9563C190.579 59.8637 190.625 59.829 190.706 59.829H191.134C191.227 59.829 191.262 59.8753 191.262 59.9563V64.5128C191.262 64.6053 191.215 64.64 191.134 64.64H190.706C190.614 64.64 190.579 64.5938 190.579 64.5128V64.1427H190.545C190.394 64.4897 190.07 64.6632 189.585 64.6632Z" fill="url(#paint10_linear_274_40595)"/>
<path id="Vector_16" d="M199.38 60.442H198.86C198.767 60.442 198.733 60.3957 198.733 60.3148V59.9678C198.733 59.8753 198.779 59.8406 198.86 59.8406H199.38C199.438 59.8406 199.473 59.8175 199.473 59.7597V58.9501C199.473 58.8576 199.519 58.8229 199.6 58.8229H200.028C200.109 58.8229 200.155 58.8692 200.155 58.9501V59.7597C200.155 59.8175 200.19 59.8406 200.259 59.8406H201.265C201.358 59.8406 201.404 59.8869 201.404 59.9678V60.3148C201.404 60.3957 201.358 60.442 201.265 60.442H200.259C200.19 60.442 200.155 60.4651 200.155 60.5229V63.2523C200.155 63.7842 200.433 64.0618 200.988 64.0618H201.358C201.45 64.0618 201.497 64.108 201.497 64.189V64.536C201.497 64.6169 201.45 64.6632 201.358 64.6632H200.907C200.467 64.6632 200.12 64.5475 199.866 64.3046C199.612 64.0618 199.473 63.7264 199.473 63.2869V60.5345C199.484 60.4651 199.45 60.442 199.38 60.442Z" fill="url(#paint11_linear_274_40595)"/>
<path id="Vector_17" d="M209.176 59.0427V58.1522C209.176 58.0597 209.222 58.025 209.303 58.025H209.742C209.835 58.025 209.869 58.0713 209.869 58.1522V59.0427C209.869 59.1352 209.823 59.1699 209.742 59.1699H209.303C209.222 59.1699 209.176 59.1352 209.176 59.0427ZM209.176 64.5244V59.9679C209.176 59.8754 209.222 59.8407 209.303 59.8407H209.742C209.835 59.8407 209.869 59.8869 209.869 59.9679V64.5244C209.869 64.617 209.823 64.6517 209.742 64.6517H209.314C209.222 64.6632 209.176 64.617 209.176 64.5244Z" fill="url(#paint12_linear_274_40595)"/>
<path id="Vector_18" d="M219.965 64.6632H219.156C218.716 64.6632 218.381 64.536 218.127 64.2931C217.872 64.0502 217.757 63.7033 217.757 63.2638V61.24C217.757 60.8005 217.884 60.4536 218.127 60.2107C218.381 59.9679 218.716 59.8406 219.156 59.8406H219.965C220.405 59.8406 220.74 59.9679 220.995 60.2107C221.249 60.4536 221.365 60.8005 221.365 61.24V63.2638C221.365 63.7033 221.238 64.0502 220.995 64.2931C220.74 64.536 220.393 64.6632 219.965 64.6632ZM219.225 64.0503H219.885C220.417 64.0503 220.683 63.7843 220.683 63.2407V61.2516C220.683 60.708 220.417 60.442 219.885 60.442H219.225C218.693 60.442 218.427 60.708 218.427 61.2516V63.2407C218.427 63.7843 218.693 64.0503 219.225 64.0503Z" fill="url(#paint13_linear_274_40595)"/>
<path id="Vector_19" d="M229.749 64.6633H229.322C229.229 64.6633 229.194 64.617 229.194 64.5361V59.9795C229.194 59.887 229.241 59.8523 229.322 59.8523H229.749C229.842 59.8523 229.877 59.8986 229.877 59.9795V60.3496H229.911C230.073 60.0142 230.386 59.8523 230.871 59.8523H231.403C231.831 59.8523 232.167 59.9795 232.409 60.2224C232.652 60.4652 232.768 60.8122 232.768 61.2516V64.5476C232.768 64.6401 232.722 64.6748 232.641 64.6748H232.213C232.12 64.6748 232.086 64.6286 232.086 64.5476V61.2863C232.086 60.7428 231.82 60.4652 231.288 60.4652H230.756C230.466 60.4652 230.258 60.5462 230.108 60.6965C229.958 60.8469 229.877 61.0666 229.877 61.3442V64.5592C229.888 64.617 229.842 64.6633 229.749 64.6633Z" fill="url(#paint14_linear_274_40595)"/>
<path id="Vector_20" d="M242.297 64.6632H240.609C240.516 64.6632 240.481 64.6169 240.481 64.5359V64.2006C240.481 64.1196 240.528 64.0733 240.609 64.0733H242.193C242.69 64.0733 242.933 63.8883 242.933 63.5298V63.3448C242.933 63.0094 242.771 62.7781 242.447 62.6509L241.326 62.1767C241.002 62.0495 240.771 61.8876 240.632 61.7141C240.493 61.5291 240.424 61.2978 240.424 60.9971C240.424 60.2222 240.851 59.829 241.696 59.829H243.245C243.338 59.829 243.373 59.8753 243.373 59.9563V60.2916C243.373 60.3726 243.326 60.4188 243.245 60.4188H241.811C241.58 60.4188 241.407 60.4651 241.291 60.5576C241.175 60.6501 241.117 60.7658 241.117 60.893V61.0549C241.117 61.3209 241.303 61.5175 241.661 61.6563L242.783 62.1536C243.107 62.2808 243.338 62.4427 243.454 62.6509C243.569 62.859 243.627 63.1482 243.627 63.5067C243.65 64.2815 243.199 64.6632 242.297 64.6632Z" fill="url(#paint15_linear_274_40595)"/>
</g>
<g id="Group_4">
<path id="Vector_21" d="M81.4077 41.9498C79.7886 41.2328 78.4702 40.2035 77.4409 38.8736L81.107 34.4789C82.6567 36.5721 84.4145 37.613 86.3921 37.613C89.0752 37.613 90.4167 36.0402 90.4167 32.8945V20.5548H80.4131V14.0669H96.974V32.536C96.974 36.0402 96.1066 38.6538 94.3719 40.4117C92.6371 42.158 90.0813 43.0369 86.7275 43.0369C84.7962 43.0253 83.0267 42.6668 81.4077 41.9498Z" fill="url(#paint16_linear_274_40595)"/>
<path id="Vector_22" d="M105.312 23.5732H111.661V43.0369H105.312V23.5732Z" fill="url(#paint17_linear_274_40595)"/>
<path id="Vector_23" d="M144.112 20.6589V39.2089C144.112 39.6021 144.1 39.9838 144.077 40.3539C143.892 43.8002 142.863 46.4023 140.978 48.1601C138.884 50.1146 135.843 51.0861 131.83 51.0861C129.713 51.0861 127.713 50.8316 125.804 50.3112C123.908 49.7908 122.335 49.0506 121.086 48.0792L123.607 43.5226C124.532 44.2859 125.7 44.8873 127.111 45.3383C128.522 45.7894 129.933 46.0091 131.344 46.0091C133.541 46.0091 135.16 45.5118 136.201 44.5288C137.115 43.6614 137.624 42.4124 137.739 40.7702C137.751 40.5389 137.762 40.2845 137.762 40.03V39.0933C136.109 40.909 133.807 41.8226 130.847 41.8226C128.834 41.8226 127.007 41.3831 125.33 40.5042C123.665 39.6253 122.335 38.3878 121.364 36.7803C120.392 35.1844 119.895 33.334 119.895 31.2523C119.895 29.1591 120.38 27.3203 121.364 25.7243C122.335 24.1284 123.665 22.8794 125.33 22.0004C126.996 21.1215 128.834 20.682 130.847 20.682C134.015 20.682 136.433 21.7229 138.086 23.8161V20.682H144.112V20.6589ZM136.247 35.115C137.323 34.1204 137.855 32.8251 137.855 31.2292C137.855 29.6332 137.323 28.338 136.247 27.3434C135.172 26.3488 133.796 25.8631 132.119 25.8631C130.442 25.8631 129.054 26.3604 127.967 27.3434C126.88 28.338 126.336 29.6332 126.336 31.2292C126.336 32.8251 126.88 34.1204 127.967 35.115C129.054 36.1096 130.43 36.5953 132.119 36.5953C133.796 36.5953 135.172 36.1096 136.247 35.115Z" fill="url(#paint18_linear_274_40595)"/>
<path id="Vector_24" d="M156.116 42.5165C154.381 42.0655 152.994 41.5104 151.964 40.828L154.081 36.2715C155.052 36.896 156.232 37.4048 157.62 37.798C159.007 38.1912 160.36 38.3878 161.69 38.3878C164.373 38.3878 165.715 37.7286 165.715 36.3987C165.715 35.7742 165.345 35.3231 164.616 35.0572C163.888 34.7912 162.754 34.5599 161.239 34.3633C159.447 34.0973 157.967 33.785 156.81 33.4265C155.642 33.0796 154.636 32.4551 153.78 31.553C152.924 30.6625 152.496 29.3788 152.496 27.725C152.496 26.3373 152.901 25.1114 153.699 24.0474C154.497 22.9719 155.665 22.1392 157.192 21.5494C158.718 20.948 160.534 20.6589 162.627 20.6589C164.177 20.6589 165.715 20.8324 167.242 21.1678C168.768 21.5031 170.04 21.9773 171.046 22.5671L168.93 27.0774C166.999 25.9903 164.905 25.4468 162.627 25.4468C161.274 25.4468 160.256 25.6318 159.574 26.0134C158.892 26.3951 158.556 26.8808 158.556 27.4822C158.556 28.1645 158.926 28.6387 159.655 28.9047C160.384 29.1706 161.552 29.4366 163.148 29.6795C164.94 29.9802 166.397 30.2924 167.542 30.6394C168.676 30.9748 169.67 31.5993 170.514 32.4898C171.359 33.3803 171.775 34.6293 171.775 36.2368C171.775 37.5899 171.37 38.8042 170.549 39.8566C169.74 40.909 168.548 41.7301 166.987 42.3199C165.426 42.8981 163.575 43.1988 161.436 43.1988C159.632 43.1873 157.851 42.9675 156.116 42.5165Z" fill="url(#paint19_linear_274_40595)"/>
<path id="Vector_25" d="M196.501 23.0761C198.317 24.6951 199.23 27.1238 199.23 30.3735V42.8635H193.286V40.1342C192.095 42.1696 189.874 43.1873 186.613 43.1873C184.936 43.1873 183.479 42.8982 182.242 42.3315C181.004 41.7649 180.067 40.9785 179.42 39.9723C178.772 38.9662 178.448 37.8328 178.448 36.5607C178.448 34.5253 179.212 32.9293 180.75 31.7613C182.276 30.5932 184.647 30.015 187.85 30.015H192.893C192.893 28.6272 192.476 27.5632 191.632 26.8231C190.788 26.0829 189.527 25.7013 187.85 25.7013C186.682 25.7013 185.538 25.8863 184.416 26.2448C183.294 26.6149 182.334 27.1006 181.548 27.7251L179.269 23.2958C180.461 22.4515 181.895 21.8039 183.56 21.3413C185.225 20.8787 186.937 20.6474 188.706 20.6474C192.083 20.659 194.685 21.457 196.501 23.0761ZM191.089 38.1682C191.933 37.6709 192.523 36.9308 192.881 35.9477V33.7157H188.533C185.931 33.7157 184.624 34.5715 184.624 36.2831C184.624 37.0927 184.948 37.7403 185.584 38.2145C186.22 38.6886 187.099 38.9315 188.209 38.9315C189.285 38.9199 190.256 38.6655 191.089 38.1682Z" fill="url(#paint20_linear_274_40595)"/>
<path id="Vector_26" d="M243.65 20.6589L235.717 43.0369H229.611L224.684 29.4482L219.596 43.0369H213.489L205.602 20.6589H211.581L216.751 35.9592L222.117 20.6589H227.483L232.687 35.9592L238.018 20.6589H243.65Z" fill="url(#paint21_linear_274_40595)"/>
<g id="Group_5" opacity="0.99">
<g id="Group_6">
<g id="Group_7">
<path id="Vector_27" d="M106.133 14.1825C105.705 14.1825 105.347 14.5295 105.347 14.9689V19.6758C105.347 20.1037 105.694 20.4622 106.133 20.4622H110.84C111.268 20.4622 111.626 20.1153 111.626 19.6758V14.9689C111.626 14.541 111.279 14.1825 110.84 14.1825H106.133Z" fill="#AD2685"/>
</g>
</g>
</g>
</g>
<g id="Group_8">
<path id="Vector_28" d="M253.805 21.0984C253.019 21.8848 252.082 22.278 250.972 22.278C249.861 22.278 248.925 21.8848 248.138 21.0984C247.363 20.3119 246.982 19.3752 246.982 18.2534C246.982 17.1547 247.375 16.2064 248.15 15.4316C248.925 14.6567 249.873 14.2635 250.972 14.2635C252.082 14.2635 253.03 14.6567 253.805 15.4316C254.591 16.2064 254.973 17.1547 254.973 18.2534C254.973 19.3752 254.58 20.3119 253.805 21.0984ZM248.531 15.8248C247.861 16.4955 247.525 17.3051 247.525 18.265C247.525 19.2248 247.861 20.0459 248.52 20.7167C249.191 21.3875 250 21.7344 250.96 21.7344C251.92 21.7344 252.729 21.399 253.4 20.7167C254.071 20.0459 254.406 19.2248 254.406 18.265C254.406 17.3166 254.071 16.4955 253.4 15.8248C252.729 15.154 251.92 14.8071 250.96 14.8071C250.023 14.8186 249.202 15.154 248.531 15.8248ZM250.891 16.0561C251.434 16.0561 251.839 16.1139 252.093 16.218C252.544 16.403 252.776 16.7731 252.776 17.3282C252.776 17.7214 252.637 18.0105 252.348 18.1956C252.197 18.2881 251.989 18.369 251.712 18.4037C252.059 18.4616 252.302 18.6003 252.463 18.8316C252.625 19.0629 252.706 19.2942 252.706 19.514V19.8378C252.706 19.9419 252.706 20.046 252.718 20.1616C252.729 20.2772 252.741 20.3582 252.753 20.3929L252.776 20.4507H252.047C252.047 20.4392 252.036 20.416 252.036 20.4045C252.036 20.3929 252.024 20.3698 252.024 20.3582L252.012 20.2194V19.8725C252.012 19.3636 251.874 19.0282 251.596 18.8663C251.434 18.7738 251.145 18.7276 250.74 18.7276H250.127V20.4507H249.352V16.0561H250.891ZM251.723 16.75C251.527 16.6459 251.214 16.5881 250.787 16.5881H250.127V18.184H250.833C251.157 18.184 251.411 18.1493 251.573 18.0915C251.874 17.9758 252.024 17.7445 252.024 17.4092C252.024 17.0738 251.92 16.854 251.723 16.75Z" fill="url(#paint22_linear_274_40595)"/>
</g>
</g>
</g>
<defs>
<linearGradient id="paint0_linear_274_40595" x1="77.4462" y1="61.3353" x2="81.0604" y2="61.3353" gradientUnits="userSpaceOnUse">
<stop stop-color="white"/>
<stop offset="0.0429" stop-color="#FEFEFE"/>
<stop offset="0.4125" stop-color="#F8F8F8"/>
<stop offset="1" stop-color="#F6F6F6"/>
</linearGradient>
<linearGradient id="paint1_linear_274_40595" x1="89.0365" y1="61.3402" x2="89.7271" y2="61.3402" gradientUnits="userSpaceOnUse">
<stop stop-color="white"/>
<stop offset="0.0429" stop-color="#FEFEFE"/>
<stop offset="0.4125" stop-color="#F8F8F8"/>
<stop offset="1" stop-color="#F6F6F6"/>
</linearGradient>
<linearGradient id="paint2_linear_274_40595" x1="97.6365" y1="62.9676" x2="101.222" y2="62.9676" gradientUnits="userSpaceOnUse">
<stop stop-color="white"/>
<stop offset="0.0429" stop-color="#FEFEFE"/>
<stop offset="0.4125" stop-color="#F8F8F8"/>
<stop offset="1" stop-color="#F6F6F6"/>
</linearGradient>
<linearGradient id="paint3_linear_274_40595" x1="109.198" y1="61.3402" x2="109.889" y2="61.3402" gradientUnits="userSpaceOnUse">
<stop stop-color="white"/>
<stop offset="0.0429" stop-color="#FEFEFE"/>
<stop offset="0.4125" stop-color="#F8F8F8"/>
<stop offset="1" stop-color="#F6F6F6"/>
</linearGradient>
<linearGradient id="paint4_linear_274_40595" x1="117.392" y1="61.7327" x2="120.164" y2="61.7327" gradientUnits="userSpaceOnUse">
<stop stop-color="white"/>
<stop offset="0.0429" stop-color="#FEFEFE"/>
<stop offset="0.4125" stop-color="#F8F8F8"/>
<stop offset="1" stop-color="#F6F6F6"/>
</linearGradient>
<linearGradient id="paint5_linear_274_40595" x1="127.695" y1="62.2484" x2="131.281" y2="62.2484" gradientUnits="userSpaceOnUse">
<stop stop-color="white"/>
<stop offset="0.0429" stop-color="#FEFEFE"/>
<stop offset="0.4125" stop-color="#F8F8F8"/>
<stop offset="1" stop-color="#F6F6F6"/>
</linearGradient>
<linearGradient id="paint6_linear_274_40595" x1="139.257" y1="61.3354" x2="139.948" y2="61.3354" gradientUnits="userSpaceOnUse">
<stop stop-color="white"/>
<stop offset="0.0429" stop-color="#FEFEFE"/>
<stop offset="0.4125" stop-color="#F8F8F8"/>
<stop offset="1" stop-color="#F6F6F6"/>
</linearGradient>
<linearGradient id="paint7_linear_274_40595" x1="156.732" y1="62.2484" x2="159.939" y2="62.2484" gradientUnits="userSpaceOnUse">
<stop stop-color="white"/>
<stop offset="0.0429" stop-color="#FEFEFE"/>
<stop offset="0.4125" stop-color="#F8F8F8"/>
<stop offset="1" stop-color="#F6F6F6"/>
</linearGradient>
<linearGradient id="paint8_linear_274_40595" x1="167.575" y1="62.2484" x2="171.189" y2="62.2484" gradientUnits="userSpaceOnUse">
<stop stop-color="white"/>
<stop offset="0.0429" stop-color="#FEFEFE"/>
<stop offset="0.4125" stop-color="#F8F8F8"/>
<stop offset="1" stop-color="#F6F6F6"/>
</linearGradient>
<linearGradient id="paint9_linear_274_40595" x1="179.071" y1="61.3354" x2="179.761" y2="61.3354" gradientUnits="userSpaceOnUse">
<stop stop-color="white"/>
<stop offset="0.0429" stop-color="#FEFEFE"/>
<stop offset="0.4125" stop-color="#F8F8F8"/>
<stop offset="1" stop-color="#F6F6F6"/>
</linearGradient>
<linearGradient id="paint10_linear_274_40595" x1="187.69" y1="62.2484" x2="191.276" y2="62.2484" gradientUnits="userSpaceOnUse">
<stop stop-color="white"/>
<stop offset="0.0429" stop-color="#FEFEFE"/>
<stop offset="0.4125" stop-color="#F8F8F8"/>
<stop offset="1" stop-color="#F6F6F6"/>
</linearGradient>
<linearGradient id="paint11_linear_274_40595" x1="198.731" y1="61.7327" x2="201.504" y2="61.7327" gradientUnits="userSpaceOnUse">
<stop stop-color="white"/>
<stop offset="0.0429" stop-color="#FEFEFE"/>
<stop offset="0.4125" stop-color="#F8F8F8"/>
<stop offset="1" stop-color="#F6F6F6"/>
</linearGradient>
<linearGradient id="paint12_linear_274_40595" x1="209.177" y1="61.3402" x2="209.867" y2="61.3402" gradientUnits="userSpaceOnUse">
<stop stop-color="white"/>
<stop offset="0.0429" stop-color="#FEFEFE"/>
<stop offset="0.4125" stop-color="#F8F8F8"/>
<stop offset="1" stop-color="#F6F6F6"/>
</linearGradient>
<linearGradient id="paint13_linear_274_40595" x1="217.748" y1="62.2484" x2="221.363" y2="62.2484" gradientUnits="userSpaceOnUse">
<stop stop-color="white"/>
<stop offset="0.0429" stop-color="#FEFEFE"/>
<stop offset="0.4125" stop-color="#F8F8F8"/>
<stop offset="1" stop-color="#F6F6F6"/>
</linearGradient>
<linearGradient id="paint14_linear_274_40595" x1="229.197" y1="62.2485" x2="232.783" y2="62.2485" gradientUnits="userSpaceOnUse">
<stop stop-color="white"/>
<stop offset="0.0429" stop-color="#FEFEFE"/>
<stop offset="0.4125" stop-color="#F8F8F8"/>
<stop offset="1" stop-color="#F6F6F6"/>
</linearGradient>
<linearGradient id="paint15_linear_274_40595" x1="240.446" y1="62.2484" x2="243.654" y2="62.2484" gradientUnits="userSpaceOnUse">
<stop stop-color="white"/>
<stop offset="0.0429" stop-color="#FEFEFE"/>
<stop offset="0.4125" stop-color="#F8F8F8"/>
<stop offset="1" stop-color="#F6F6F6"/>
</linearGradient>
<linearGradient id="paint16_linear_274_40595" x1="77.4468" y1="28.5449" x2="96.9724" y2="28.5449" gradientUnits="userSpaceOnUse">
<stop stop-color="white"/>
<stop offset="0.0429" stop-color="#FEFEFE"/>
<stop offset="0.4125" stop-color="#F8F8F8"/>
<stop offset="1" stop-color="#F6F6F6"/>
</linearGradient>
<linearGradient id="paint17_linear_274_40595" x1="105.311" y1="33.2988" x2="111.657" y2="33.2988" gradientUnits="userSpaceOnUse">
<stop stop-color="white"/>
<stop offset="0.0429" stop-color="#FEFEFE"/>
<stop offset="0.4125" stop-color="#F8F8F8"/>
<stop offset="1" stop-color="#F6F6F6"/>
</linearGradient>
<linearGradient id="paint18_linear_274_40595" x1="119.911" y1="35.8669" x2="144.114" y2="35.8669" gradientUnits="userSpaceOnUse">
<stop stop-color="white"/>
<stop offset="0.0429" stop-color="#FEFEFE"/>
<stop offset="0.4125" stop-color="#F8F8F8"/>
<stop offset="1" stop-color="#F6F6F6"/>
</linearGradient>
<linearGradient id="paint19_linear_274_40595" x1="151.966" y1="31.9211" x2="171.776" y2="31.9211" gradientUnits="userSpaceOnUse">
<stop stop-color="white"/>
<stop offset="0.0429" stop-color="#FEFEFE"/>
<stop offset="0.4125" stop-color="#F8F8F8"/>
<stop offset="1" stop-color="#F6F6F6"/>
</linearGradient>
<linearGradient id="paint20_linear_274_40595" x1="178.44" y1="31.9212" x2="199.227" y2="31.9212" gradientUnits="userSpaceOnUse">
<stop stop-color="white"/>
<stop offset="0.0429" stop-color="#FEFEFE"/>
<stop offset="0.4125" stop-color="#F8F8F8"/>
<stop offset="1" stop-color="#F6F6F6"/>
</linearGradient>
<linearGradient id="paint21_linear_274_40595" x1="205.62" y1="31.8398" x2="243.654" y2="31.8398" gradientUnits="userSpaceOnUse">
<stop stop-color="white"/>
<stop offset="0.0429" stop-color="#FEFEFE"/>
<stop offset="0.4125" stop-color="#F8F8F8"/>
<stop offset="1" stop-color="#F6F6F6"/>
</linearGradient>
<linearGradient id="paint22_linear_274_40595" x1="246.975" y1="18.2753" x2="254.974" y2="18.2753" gradientUnits="userSpaceOnUse">
<stop stop-color="white"/>
<stop offset="0.0429" stop-color="#FEFEFE"/>
<stop offset="0.4125" stop-color="#F8F8F8"/>
<stop offset="1" stop-color="#F6F6F6"/>
</linearGradient>
</defs>
</svg>
