<svg width="142" height="38" viewBox="0 0 142 38" fill="none" xmlns="http://www.w3.org/2000/svg">
<g clip-path="url(#clip0_1_3)">
<path opacity="0.99" d="M11.0293 34.828L14.9017 36.9649C15.6304 37.3663 16.5137 37.3787 17.2548 36.9896L29.9218 29.9861C30.7678 29.5168 31.3669 28.7077 31.5707 27.7628L31.7499 26.9353H27.0129H18.002C17.1436 26.9353 16.3901 26.3671 16.1492 25.5457L15.229 22.3774L9.38651 26.3115C8.84302 26.6759 8.60834 27.3614 8.81214 27.979L11.0293 34.828Z" fill="#2D337B"/>
<path opacity="0.99" d="M3.29106 30.1536L11.0296 34.8349L8.84329 28.1032C8.62095 27.4115 8.88035 26.6581 9.47942 26.2504L15.2231 22.3782L11.0234 7.98834L4.87212 10.5514C3.81602 10.9898 3.03167 11.9039 2.75992 13.0156L0.0918866 23.8172C-0.105746 24.6262 0.0177748 25.4846 0.437744 26.2073L1.98174 28.832C2.30907 29.3754 2.75375 29.8324 3.29106 30.1536Z" fill="#E51148"/>
<path d="M11.4309 24.941L8.78762 15.5722C8.59616 14.9052 8.91114 14.195 9.52874 13.88L12.3326 12.4473L15.2292 22.3842L11.4309 24.941Z" fill="#F0E400"/>
<path opacity="0.99" d="M11.0295 7.99394L11.8448 10.7916L16.2051 25.7497C16.4089 26.4537 17.0573 26.9354 17.7861 26.9354H27.0069H31.7439L33.2509 20.7348C33.3558 20.3025 33.3558 19.8578 33.2509 19.4255L31.7748 13.3423C31.7563 13.2619 31.7316 13.1817 31.7069 13.1014L30.1382 8.46947C29.9035 7.78395 29.4094 7.22194 28.7609 6.9008L14.902 0.0579116C14.482 -0.152068 14.0126 0.243189 14.1485 0.694029L15.4331 4.92451C15.6184 5.54828 15.3096 6.20911 14.7105 6.45614L11.0295 7.99394Z" fill="#AD2685"/>
<path d="M44.0505 35.8871H43.7424C43.505 35.8871 43.3188 35.8165 43.184 35.6818C43.0492 35.547 42.985 35.3544 42.985 35.1104V33.9873C42.985 33.7434 43.0492 33.5508 43.184 33.4161C43.3188 33.2813 43.505 33.2107 43.7424 33.2107H44.0505C44.3265 33.2107 44.5062 33.3005 44.5896 33.4866H44.6089V32.2671C44.6089 32.2158 44.6346 32.1965 44.6795 32.1965H44.9234C44.9684 32.1965 44.9941 32.2222 44.9941 32.2671V35.81C44.9941 35.8614 44.9684 35.8807 44.9234 35.8807H44.6795C44.6346 35.8807 44.6089 35.855 44.6089 35.81V35.6047H44.5896C44.4998 35.7908 44.3201 35.8871 44.0505 35.8871ZM44.6089 35.0655V34.0258C44.6089 33.8717 44.564 33.7498 44.4805 33.6663C44.3971 33.5829 44.2752 33.5379 44.1211 33.5379H43.8002C43.5114 33.5379 43.3638 33.692 43.3638 33.9937V35.0848C43.3638 35.3865 43.5114 35.5405 43.8002 35.5405H44.1211C44.2816 35.5405 44.3971 35.4956 44.4805 35.4122C44.5704 35.3415 44.6089 35.2196 44.6089 35.0655Z" fill="url(#paint0_linear_1_3)"/>
<path d="M49.4161 32.768V32.2738C49.4161 32.2224 49.4418 32.2032 49.4867 32.2032H49.7306C49.782 32.2032 49.8012 32.2288 49.8012 32.2738V32.768C49.8012 32.8194 49.7755 32.8386 49.7306 32.8386H49.4867C49.4353 32.8386 49.4161 32.8194 49.4161 32.768ZM49.4161 35.8103V33.2815C49.4161 33.2301 49.4418 33.2109 49.4867 33.2109H49.7306C49.782 33.2109 49.8012 33.2365 49.8012 33.2815V35.8103C49.8012 35.8617 49.7755 35.8809 49.7306 35.8809H49.4931C49.4418 35.8874 49.4161 35.8617 49.4161 35.8103Z" fill="url(#paint1_linear_1_3)"/>
<path d="M55.2376 35.8872H54.9423C54.7048 35.8872 54.5187 35.8166 54.3839 35.6818C54.2491 35.547 54.1849 35.3545 54.1849 35.1106V33.9937C54.1849 33.7499 54.2555 33.5573 54.3904 33.4225C54.5316 33.2877 54.7176 33.2171 54.9616 33.2171H56.1041C56.1553 33.2171 56.1746 33.2428 56.1746 33.2877V35.9C56.1746 36.1439 56.1041 36.33 55.9693 36.4712C55.8281 36.6125 55.6419 36.6766 55.398 36.6766H54.4353C54.3839 36.6766 54.3583 36.651 54.3583 36.606V36.4135C54.3583 36.3621 54.3839 36.3429 54.4353 36.3429H55.3531C55.6483 36.3429 55.796 36.1952 55.796 35.8936V35.6176H55.7767C55.6804 35.7909 55.5007 35.8872 55.2376 35.8872ZM55.796 35.0656V33.5958C55.796 33.5637 55.7767 33.5509 55.7446 33.5509H55.0129C54.7176 33.5509 54.5701 33.705 54.5701 34.0066V35.0913C54.5701 35.3929 54.7176 35.547 55.0129 35.547H55.3082C55.4686 35.547 55.5841 35.502 55.6676 35.4186C55.751 35.3417 55.796 35.2197 55.796 35.0656Z" fill="url(#paint2_linear_1_3)"/>
<path d="M60.6033 32.768V32.2738C60.6033 32.2224 60.6289 32.2032 60.6739 32.2032H60.9178C60.9691 32.2032 60.9883 32.2288 60.9883 32.2738V32.768C60.9883 32.8194 60.9627 32.8386 60.9178 32.8386H60.6739C60.6289 32.8386 60.6033 32.8194 60.6033 32.768ZM60.6033 35.8103V33.2815C60.6033 33.2301 60.6289 33.2109 60.6739 33.2109H60.9178C60.9691 33.2109 60.9883 33.2365 60.9883 33.2815V35.8103C60.9883 35.8617 60.9627 35.8809 60.9178 35.8809H60.6803C60.6289 35.8874 60.6033 35.8617 60.6033 35.8103Z" fill="url(#paint3_linear_1_3)"/>
<path d="M65.5135 33.5444H65.2246C65.1732 33.5444 65.154 33.5187 65.154 33.4738V33.2812C65.154 33.23 65.1797 33.2107 65.2246 33.2107H65.5135C65.5456 33.2107 65.5648 33.1979 65.5648 33.1658V32.7164C65.5648 32.6651 65.5905 32.6458 65.6354 32.6458H65.8728C65.9178 32.6458 65.9435 32.6715 65.9435 32.7164V33.1658C65.9435 33.1979 65.9627 33.2107 66.0012 33.2107H66.5596C66.6109 33.2107 66.6366 33.2364 66.6366 33.2812V33.4738C66.6366 33.5187 66.6109 33.5444 66.5596 33.5444H66.0012C65.9627 33.5444 65.9435 33.5572 65.9435 33.5893V35.1041C65.9435 35.3993 66.0975 35.5533 66.4056 35.5533H66.6109C66.6623 35.5533 66.688 35.579 66.688 35.6239V35.8165C66.688 35.8614 66.6623 35.8871 66.6109 35.8871H66.3607C66.1168 35.8871 65.9242 35.8229 65.783 35.6881C65.6418 35.5533 65.5648 35.3673 65.5648 35.1233V33.5958C65.5648 33.5572 65.5456 33.5444 65.5135 33.5444Z" fill="url(#paint4_linear_1_3)"/>
<path d="M71.9189 35.8869H71.643C71.3991 35.8869 71.2129 35.8164 71.0718 35.6816C70.9306 35.5468 70.8664 35.3542 70.8664 35.1103V33.9871C70.8664 33.7432 70.937 33.5507 71.0718 33.4159C71.2129 33.2811 71.3991 33.2105 71.643 33.2105H72.7854C72.8368 33.2105 72.856 33.2362 72.856 33.2811V35.81C72.856 35.8612 72.8304 35.8805 72.7854 35.8805H72.548C72.4967 35.8805 72.4774 35.8548 72.4774 35.81V35.6046H72.4582C72.3683 35.7907 72.1885 35.8869 71.9189 35.8869ZM72.4774 35.0655V33.5891C72.4774 33.5571 72.4582 33.5443 72.4261 33.5443H71.6879C71.3991 33.5443 71.2514 33.6983 71.2514 34V35.0911C71.2514 35.3927 71.3991 35.5468 71.6879 35.5468H71.9896C72.15 35.5468 72.2656 35.5019 72.349 35.4184C72.4325 35.3414 72.4774 35.2194 72.4774 35.0655Z" fill="url(#paint5_linear_1_3)"/>
<path d="M77.593 35.8874H77.3556C77.3042 35.8874 77.285 35.8617 77.285 35.8168V32.2738C77.285 32.2224 77.3107 32.2032 77.3556 32.2032H77.593C77.6444 32.2032 77.6636 32.2288 77.6636 32.2738V35.8168C77.67 35.8617 77.6444 35.8874 77.593 35.8874Z" fill="url(#paint6_linear_1_3)"/>
<path d="M88.0161 35.8872H87.079C87.0276 35.8872 87.0084 35.8615 87.0084 35.8166V35.6304C87.0084 35.5855 87.0341 35.5598 87.079 35.5598H87.9583C88.2343 35.5598 88.3691 35.4572 88.3691 35.2582V35.1555C88.3691 34.9694 88.2793 34.841 88.0995 34.7704L87.477 34.5073C87.2972 34.4367 87.1689 34.3468 87.0918 34.2505C87.0149 34.1478 86.9764 34.0194 86.9764 33.8526C86.9764 33.4225 87.2138 33.2043 87.6824 33.2043H88.5424C88.5937 33.2043 88.613 33.23 88.613 33.2749V33.4611C88.613 33.506 88.5873 33.5317 88.5424 33.5317H87.7466C87.6182 33.5317 87.5219 33.5573 87.4577 33.6087C87.3935 33.66 87.3614 33.7242 87.3614 33.7948V33.8847C87.3614 34.0323 87.4641 34.1414 87.6631 34.2184L88.2857 34.4944C88.4654 34.5651 88.5937 34.6549 88.6579 34.7704C88.7221 34.8859 88.7542 35.0464 88.7542 35.2454C88.767 35.6754 88.5168 35.8872 88.0161 35.8872Z" fill="url(#paint7_linear_1_3)"/>
<path d="M94.229 35.8869H93.7797C93.5358 35.8869 93.3496 35.8164 93.2084 35.6816C93.0673 35.5468 93.0031 35.3542 93.0031 35.1103V33.9871C93.0031 33.7432 93.0736 33.5507 93.2084 33.4159C93.3496 33.2811 93.5358 33.2105 93.7797 33.2105H94.229C94.4729 33.2105 94.659 33.2811 94.8002 33.4159C94.9414 33.5507 95.0056 33.7432 95.0056 33.9871V35.1103C95.0056 35.3542 94.935 35.5468 94.8002 35.6816C94.659 35.8164 94.4729 35.8869 94.229 35.8869ZM93.8182 35.5468H94.184C94.4793 35.5468 94.627 35.3992 94.627 35.0975V33.9936C94.627 33.6919 94.4793 33.5443 94.184 33.5443H93.8182C93.523 33.5443 93.3753 33.6919 93.3753 33.9936V35.0975C93.3817 35.3992 93.5294 35.5468 93.8182 35.5468Z" fill="url(#paint8_linear_1_3)"/>
<path d="M99.6908 35.8874H99.4535C99.402 35.8874 99.3835 35.8617 99.3835 35.8168V32.2738C99.3835 32.2224 99.4088 32.2032 99.4535 32.2032H99.6908C99.7424 32.2032 99.7618 32.2288 99.7618 32.2738V35.8168C99.7686 35.8617 99.7424 35.8874 99.6908 35.8874Z" fill="url(#paint9_linear_1_3)"/>
<path d="M105.217 35.8872H104.922C104.684 35.8872 104.498 35.8166 104.363 35.6818C104.229 35.547 104.165 35.3545 104.165 35.1106V33.2813C104.165 33.23 104.19 33.2107 104.235 33.2107H104.473C104.524 33.2107 104.543 33.2364 104.543 33.2813V35.0913C104.543 35.393 104.691 35.547 104.98 35.547H105.281C105.442 35.547 105.558 35.5021 105.641 35.4187C105.724 35.3353 105.77 35.2133 105.77 35.0592V33.2749C105.77 33.2235 105.795 33.2043 105.84 33.2043H106.077C106.128 33.2043 106.148 33.23 106.148 33.2749V35.8038C106.148 35.8551 106.123 35.8744 106.077 35.8744H105.84C105.788 35.8744 105.77 35.8487 105.77 35.8038V35.5983H105.75C105.666 35.7909 105.487 35.8872 105.217 35.8872Z" fill="url(#paint10_linear_1_3)"/>
<path d="M110.654 33.5444H110.365C110.314 33.5444 110.294 33.5187 110.294 33.4738V33.2812C110.294 33.23 110.32 33.2107 110.365 33.2107H110.654C110.686 33.2107 110.706 33.1979 110.706 33.1658V32.7164C110.706 32.6651 110.731 32.6458 110.776 32.6458H111.013C111.059 32.6458 111.084 32.6715 111.084 32.7164V33.1658C111.084 33.1979 111.103 33.2107 111.141 33.2107H111.701C111.751 33.2107 111.777 33.2364 111.777 33.2812V33.4738C111.777 33.5187 111.751 33.5444 111.701 33.5444H111.141C111.103 33.5444 111.084 33.5572 111.084 33.5893V35.1041C111.084 35.3993 111.238 35.5533 111.546 35.5533H111.751C111.803 35.5533 111.829 35.579 111.829 35.6239V35.8165C111.829 35.8614 111.803 35.8871 111.751 35.8871H111.501C111.257 35.8871 111.064 35.8229 110.923 35.6881C110.782 35.5533 110.706 35.3673 110.706 35.1233V33.5958C110.711 33.5572 110.692 33.5444 110.654 33.5444Z" fill="url(#paint11_linear_1_3)"/>
<path d="M116.09 32.768V32.2738C116.09 32.2224 116.116 32.2032 116.161 32.2032H116.404C116.456 32.2032 116.475 32.2288 116.475 32.2738V32.768C116.475 32.8194 116.45 32.8386 116.404 32.8386H116.161C116.116 32.8386 116.09 32.8194 116.09 32.768ZM116.09 35.8103V33.2815C116.09 33.2301 116.116 33.2109 116.161 33.2109H116.404C116.456 33.2109 116.475 33.2365 116.475 33.2815V35.8103C116.475 35.8617 116.45 35.8809 116.404 35.8809H116.167C116.116 35.8874 116.09 35.8617 116.09 35.8103Z" fill="url(#paint12_linear_1_3)"/>
<path d="M122.078 35.8869H121.629C121.385 35.8869 121.199 35.8164 121.058 35.6816C120.917 35.5468 120.853 35.3542 120.853 35.1103V33.9871C120.853 33.7432 120.923 33.5507 121.058 33.4159C121.199 33.2811 121.385 33.2105 121.629 33.2105H122.078C122.322 33.2105 122.508 33.2811 122.65 33.4159C122.791 33.5507 122.855 33.7432 122.855 33.9871V35.1103C122.855 35.3542 122.784 35.5468 122.65 35.6816C122.508 35.8164 122.316 35.8869 122.078 35.8869ZM121.668 35.5468H122.033C122.329 35.5468 122.476 35.3992 122.476 35.0975V33.9936C122.476 33.6919 122.329 33.5443 122.033 33.5443H121.668C121.372 33.5443 121.224 33.6919 121.224 33.9936V35.0975C121.224 35.3992 121.372 35.5468 121.668 35.5468Z" fill="url(#paint13_linear_1_3)"/>
<path d="M127.508 35.8872H127.271C127.219 35.8872 127.2 35.8615 127.2 35.8166V33.2877C127.2 33.2364 127.226 33.2171 127.271 33.2171H127.508C127.56 33.2171 127.579 33.2428 127.579 33.2877V33.4931H127.599C127.688 33.307 127.861 33.2171 128.131 33.2171H128.426C128.664 33.2171 128.849 33.2877 128.985 33.4225C129.12 33.5573 129.184 33.7499 129.184 33.9937V35.823C129.184 35.8743 129.158 35.8936 129.113 35.8936H128.876C128.824 35.8936 128.805 35.8679 128.805 35.823V34.013C128.805 33.7114 128.657 33.5573 128.362 33.5573H128.066C127.906 33.5573 127.791 33.6023 127.708 33.6857C127.624 33.7692 127.579 33.891 127.579 34.0451V35.8294C127.585 35.8615 127.56 35.8872 127.508 35.8872Z" fill="url(#paint14_linear_1_3)"/>
<path d="M134.472 35.8872H133.535C133.484 35.8872 133.464 35.8615 133.464 35.8166V35.6304C133.464 35.5855 133.49 35.5598 133.535 35.5598H134.415C134.69 35.5598 134.825 35.4572 134.825 35.2582V35.1555C134.825 34.9694 134.736 34.841 134.556 34.7704L133.933 34.5073C133.753 34.4367 133.625 34.3468 133.548 34.2505C133.471 34.1478 133.432 34.0194 133.432 33.8526C133.432 33.4225 133.67 33.2043 134.138 33.2043H134.998C135.05 33.2043 135.069 33.23 135.069 33.2749V33.4611C135.069 33.506 135.043 33.5317 134.998 33.5317H134.203C134.074 33.5317 133.978 33.5573 133.914 33.6087C133.85 33.66 133.818 33.7242 133.818 33.7948V33.8847C133.818 34.0323 133.921 34.1414 134.119 34.2184L134.742 34.4944C134.921 34.5651 135.05 34.6549 135.114 34.7704C135.178 34.8859 135.21 35.0464 135.21 35.2454C135.223 35.6754 134.973 35.8872 134.472 35.8872Z" fill="url(#paint15_linear_1_3)"/>
<path d="M45.1803 23.2816C44.2817 22.8837 43.55 22.3125 42.9788 21.5744L45.0134 19.1354C45.8735 20.2971 46.849 20.8747 47.9466 20.8747C49.4356 20.8747 50.1802 20.0019 50.1802 18.256V11.4077H44.6283V7.80695H53.8194V18.0571C53.8194 20.0019 53.338 21.4524 52.3752 22.4279C51.4126 23.3971 49.994 23.885 48.1327 23.885C47.0608 23.8786 46.0788 23.6796 45.1803 23.2816Z" fill="url(#paint16_linear_1_3)"/>
<path d="M58.4469 13.0827H61.9705V23.8848H58.4469V13.0827Z" fill="url(#paint17_linear_1_3)"/>
<path d="M79.9803 11.4656V21.7606C79.9803 21.9789 79.9739 22.1907 79.961 22.396C79.8583 24.3088 79.287 25.7529 78.2409 26.7285C77.0791 27.8131 75.3911 28.3524 73.164 28.3524C71.9894 28.3524 70.879 28.2111 69.82 27.9223C68.7673 27.6335 67.8944 27.2227 67.2012 26.6836L68.6005 24.1547C69.114 24.5784 69.7622 24.9121 70.5452 25.1624C71.3283 25.4127 72.1113 25.5346 72.8944 25.5346C74.1138 25.5346 75.0124 25.2587 75.59 24.7131C76.0972 24.2317 76.3795 23.5386 76.4437 22.6271C76.4501 22.4987 76.4565 22.3575 76.4565 22.2164V21.6964C75.5387 22.7042 74.2615 23.2112 72.6183 23.2112C71.5016 23.2112 70.4875 22.9673 69.5568 22.4795C68.6325 21.9917 67.8944 21.305 67.3553 20.4128C66.8162 19.5271 66.5402 18.5002 66.5402 17.3448C66.5402 16.1831 66.8098 15.1626 67.3553 14.2768C67.8944 13.3911 68.6325 12.6979 69.5568 12.2102C70.4811 11.7223 71.5016 11.4785 72.6183 11.4785C74.377 11.4785 75.7184 12.0561 76.6363 13.2178V11.4785H79.9803V11.4656ZM75.6157 19.4885C76.2127 18.9366 76.5079 18.2177 76.5079 17.332C76.5079 16.4462 76.2127 15.7274 75.6157 15.1754C75.0188 14.6235 74.255 14.3539 73.3244 14.3539C72.3938 14.3539 71.6236 14.6299 71.0202 15.1754C70.4169 15.7274 70.1153 16.4462 70.1153 17.332C70.1153 18.2177 70.4169 18.9366 71.0202 19.4885C71.6236 20.0406 72.3874 20.3101 73.3244 20.3101C74.255 20.3101 75.0188 20.0406 75.6157 19.4885Z" fill="url(#paint18_linear_1_3)"/>
<path d="M86.6427 23.5963C85.68 23.346 84.9098 23.038 84.3385 22.6592L85.5131 20.1304C86.0522 20.477 86.7069 20.7594 87.4771 20.9776C88.2473 21.1958 88.9982 21.305 89.7363 21.305C91.2254 21.305 91.9699 20.9391 91.9699 20.201C91.9699 19.8544 91.7646 19.6041 91.3602 19.4564C90.9559 19.3088 90.3268 19.1805 89.4861 19.0714C88.4912 18.9238 87.6697 18.7504 87.0278 18.5514C86.3796 18.359 85.8211 18.0123 85.3462 17.5117C84.8713 17.0174 84.6338 16.305 84.6338 15.3873C84.6338 14.6171 84.8585 13.9367 85.3013 13.3462C85.7441 12.7493 86.3924 12.2872 87.2396 11.9598C88.0868 11.6261 89.0945 11.4656 90.2563 11.4656C91.1163 11.4656 91.9699 11.5619 92.8172 11.748C93.6644 11.9341 94.3704 12.1973 94.9288 12.5246L93.7543 15.0278C92.6824 14.4245 91.5207 14.1228 90.2563 14.1228C89.5054 14.1228 88.9405 14.2255 88.5618 14.4373C88.1831 14.6492 87.997 14.9187 87.997 15.2525C87.997 15.6311 88.2024 15.8943 88.6068 16.0419C89.0111 16.1896 89.6593 16.3371 90.5451 16.4719C91.5399 16.6388 92.3487 16.8121 92.9841 17.0046C93.613 17.1908 94.165 17.5374 94.6336 18.0316C95.1021 18.5259 95.3332 19.219 95.3332 20.1111C95.3332 20.8621 95.1085 21.5361 94.6529 22.1201C94.2035 22.7042 93.5424 23.1598 92.6759 23.4872C91.8094 23.8082 90.7826 23.975 89.5951 23.975C88.5939 23.9685 87.6055 23.8467 86.6427 23.5963Z" fill="url(#paint19_linear_1_3)"/>
<path d="M109.056 12.8069C110.064 13.7053 110.57 15.0533 110.57 16.8568V23.7886H107.271V22.2739C106.61 23.4036 105.378 23.9683 103.568 23.9683C102.637 23.9683 101.829 23.8079 101.142 23.4934C100.455 23.1789 99.9349 22.7425 99.576 22.184C99.2162 21.6256 99.0363 20.9967 99.0363 20.2906C99.0363 19.161 99.4603 18.2752 100.314 17.627C101.161 16.9787 102.476 16.6579 104.254 16.6579H107.053C107.053 15.8877 106.822 15.2971 106.353 14.8864C105.885 14.4755 105.185 14.2638 104.254 14.2638C103.607 14.2638 102.971 14.3665 102.348 14.5654C101.726 14.7708 101.193 15.0404 100.757 15.387L99.4924 12.9287C100.154 12.4602 100.949 12.1008 101.873 11.8441C102.797 11.5873 103.748 11.4589 104.73 11.4589C106.604 11.4653 108.048 11.9083 109.056 12.8069ZM106.052 21.1828C106.52 20.9068 106.847 20.4961 107.047 19.9504V18.7117H104.634C103.189 18.7117 102.464 19.1866 102.464 20.1366C102.464 20.5858 102.644 20.9453 102.997 21.2085C103.35 21.4716 103.837 21.6064 104.454 21.6064C105.051 21.6 105.59 21.4587 106.052 21.1828Z" fill="url(#paint20_linear_1_3)"/>
<path d="M135.223 11.4656L130.82 23.8852H127.431L124.697 16.3435L121.873 23.8852H118.484L114.107 11.4656H117.425L120.294 19.9571L123.273 11.4656H126.251L129.138 19.9571L132.097 11.4656H135.223Z" fill="url(#paint21_linear_1_3)"/>
<g opacity="0.99">
<path d="M58.9024 7.87103C58.6649 7.87103 58.4659 8.06359 58.4659 8.30749V10.9198C58.4659 11.1572 58.6585 11.3562 58.9024 11.3562H61.5147C61.7522 11.3562 61.9512 11.1636 61.9512 10.9198V8.30749C61.9512 8.07001 61.7586 7.87103 61.5147 7.87103H58.9024Z" fill="#AD2685"/>
</g>
<path d="M140.859 11.7095C140.422 12.1459 139.902 12.3641 139.286 12.3641C138.67 12.3641 138.15 12.1459 137.714 11.7095C137.284 11.273 137.072 10.7531 137.072 10.1306C137.072 9.52079 137.29 8.99448 137.721 8.56446C138.15 8.13442 138.677 7.9162 139.286 7.9162C139.902 7.9162 140.428 8.13442 140.859 8.56446C141.295 8.99448 141.507 9.52079 141.507 10.1306C141.507 10.7531 141.289 11.273 140.859 11.7095ZM137.932 8.78268C137.56 9.15494 137.373 9.60423 137.373 10.137C137.373 10.6697 137.56 11.1253 137.926 11.4977C138.297 11.8699 138.747 12.0624 139.28 12.0624C139.813 12.0624 140.262 11.8763 140.634 11.4977C141.006 11.1253 141.193 10.6697 141.193 10.137C141.193 9.61065 141.006 9.15494 140.634 8.78268C140.262 8.41042 139.813 8.21786 139.28 8.21786C138.76 8.22428 138.304 8.41042 137.932 8.78268ZM139.242 8.91104C139.543 8.91104 139.768 8.94314 139.909 9.0009C140.159 9.1036 140.287 9.30899 140.287 9.61707C140.287 9.83528 140.21 9.99576 140.05 10.0985C139.966 10.1498 139.851 10.1948 139.697 10.214C139.889 10.2461 140.025 10.323 140.114 10.4514C140.204 10.5798 140.249 10.7082 140.249 10.8302V11.0099C140.249 11.0676 140.249 11.1253 140.255 11.1895C140.262 11.2537 140.268 11.2987 140.275 11.3179L140.287 11.35H139.883C139.883 11.3436 139.877 11.3308 139.877 11.3243C139.877 11.3179 139.87 11.3051 139.87 11.2987L139.864 11.2216V11.0291C139.864 10.7467 139.786 10.5605 139.633 10.4707C139.543 10.4193 139.383 10.3937 139.158 10.3937H138.818V11.35H138.388V8.91104H139.242ZM139.704 9.29615C139.595 9.23838 139.421 9.20629 139.183 9.20629H138.818V10.092H139.21C139.389 10.092 139.531 10.0728 139.62 10.0407C139.786 9.9765 139.87 9.84812 139.87 9.66199C139.87 9.47586 139.813 9.35391 139.704 9.29615Z" fill="url(#paint22_linear_1_3)"/>
</g>
<defs>
<linearGradient id="paint0_linear_1_3" x1="42.9819" y1="34.0402" x2="44.9877" y2="34.0402" gradientUnits="userSpaceOnUse">
<stop stop-color="white"/>
<stop offset="0.0429" stop-color="#FEFEFE"/>
<stop offset="0.4125" stop-color="#F8F8F8"/>
<stop offset="1" stop-color="#F6F6F6"/>
</linearGradient>
<linearGradient id="paint1_linear_1_3" x1="49.4141" y1="34.0431" x2="49.7974" y2="34.0431" gradientUnits="userSpaceOnUse">
<stop stop-color="white"/>
<stop offset="0.0429" stop-color="#FEFEFE"/>
<stop offset="0.4125" stop-color="#F8F8F8"/>
<stop offset="1" stop-color="#F6F6F6"/>
</linearGradient>
<linearGradient id="paint2_linear_1_3" x1="54.1873" y1="34.9461" x2="56.1773" y2="34.9461" gradientUnits="userSpaceOnUse">
<stop stop-color="white"/>
<stop offset="0.0429" stop-color="#FEFEFE"/>
<stop offset="0.4125" stop-color="#F8F8F8"/>
<stop offset="1" stop-color="#F6F6F6"/>
</linearGradient>
<linearGradient id="paint3_linear_1_3" x1="60.6039" y1="34.0431" x2="60.9872" y2="34.0431" gradientUnits="userSpaceOnUse">
<stop stop-color="white"/>
<stop offset="0.0429" stop-color="#FEFEFE"/>
<stop offset="0.4125" stop-color="#F8F8F8"/>
<stop offset="1" stop-color="#F6F6F6"/>
</linearGradient>
<linearGradient id="paint4_linear_1_3" x1="65.1513" y1="34.2607" x2="66.6898" y2="34.2607" gradientUnits="userSpaceOnUse">
<stop stop-color="white"/>
<stop offset="0.0429" stop-color="#FEFEFE"/>
<stop offset="0.4125" stop-color="#F8F8F8"/>
<stop offset="1" stop-color="#F6F6F6"/>
</linearGradient>
<linearGradient id="paint5_linear_1_3" x1="70.8696" y1="34.5468" x2="72.8597" y2="34.5468" gradientUnits="userSpaceOnUse">
<stop stop-color="white"/>
<stop offset="0.0429" stop-color="#FEFEFE"/>
<stop offset="0.4125" stop-color="#F8F8F8"/>
<stop offset="1" stop-color="#F6F6F6"/>
</linearGradient>
<linearGradient id="paint6_linear_1_3" x1="77.2863" y1="34.0405" x2="77.6696" y2="34.0405" gradientUnits="userSpaceOnUse">
<stop stop-color="white"/>
<stop offset="0.0429" stop-color="#FEFEFE"/>
<stop offset="0.4125" stop-color="#F8F8F8"/>
<stop offset="1" stop-color="#F6F6F6"/>
</linearGradient>
<linearGradient id="paint7_linear_1_3" x1="86.9845" y1="34.5471" x2="88.7646" y2="34.5471" gradientUnits="userSpaceOnUse">
<stop stop-color="white"/>
<stop offset="0.0429" stop-color="#FEFEFE"/>
<stop offset="0.4125" stop-color="#F8F8F8"/>
<stop offset="1" stop-color="#F6F6F6"/>
</linearGradient>
<linearGradient id="paint8_linear_1_3" x1="93.002" y1="34.5468" x2="95.0078" y2="34.5468" gradientUnits="userSpaceOnUse">
<stop stop-color="white"/>
<stop offset="0.0429" stop-color="#FEFEFE"/>
<stop offset="0.4125" stop-color="#F8F8F8"/>
<stop offset="1" stop-color="#F6F6F6"/>
</linearGradient>
<linearGradient id="paint9_linear_1_3" x1="99.3825" y1="34.0405" x2="99.7657" y2="34.0405" gradientUnits="userSpaceOnUse">
<stop stop-color="white"/>
<stop offset="0.0429" stop-color="#FEFEFE"/>
<stop offset="0.4125" stop-color="#F8F8F8"/>
<stop offset="1" stop-color="#F6F6F6"/>
</linearGradient>
<linearGradient id="paint10_linear_1_3" x1="104.166" y1="34.5471" x2="106.156" y2="34.5471" gradientUnits="userSpaceOnUse">
<stop stop-color="white"/>
<stop offset="0.0429" stop-color="#FEFEFE"/>
<stop offset="0.4125" stop-color="#F8F8F8"/>
<stop offset="1" stop-color="#F6F6F6"/>
</linearGradient>
<linearGradient id="paint11_linear_1_3" x1="110.294" y1="34.2607" x2="111.832" y2="34.2607" gradientUnits="userSpaceOnUse">
<stop stop-color="white"/>
<stop offset="0.0429" stop-color="#FEFEFE"/>
<stop offset="0.4125" stop-color="#F8F8F8"/>
<stop offset="1" stop-color="#F6F6F6"/>
</linearGradient>
<linearGradient id="paint12_linear_1_3" x1="116.091" y1="34.0431" x2="116.474" y2="34.0431" gradientUnits="userSpaceOnUse">
<stop stop-color="white"/>
<stop offset="0.0429" stop-color="#FEFEFE"/>
<stop offset="0.4125" stop-color="#F8F8F8"/>
<stop offset="1" stop-color="#F6F6F6"/>
</linearGradient>
<linearGradient id="paint13_linear_1_3" x1="120.848" y1="34.5468" x2="122.853" y2="34.5468" gradientUnits="userSpaceOnUse">
<stop stop-color="white"/>
<stop offset="0.0429" stop-color="#FEFEFE"/>
<stop offset="0.4125" stop-color="#F8F8F8"/>
<stop offset="1" stop-color="#F6F6F6"/>
</linearGradient>
<linearGradient id="paint14_linear_1_3" x1="127.202" y1="34.547" x2="129.192" y2="34.547" gradientUnits="userSpaceOnUse">
<stop stop-color="white"/>
<stop offset="0.0429" stop-color="#FEFEFE"/>
<stop offset="0.4125" stop-color="#F8F8F8"/>
<stop offset="1" stop-color="#F6F6F6"/>
</linearGradient>
<linearGradient id="paint15_linear_1_3" x1="133.445" y1="34.5471" x2="135.225" y2="34.5471" gradientUnits="userSpaceOnUse">
<stop stop-color="white"/>
<stop offset="0.0429" stop-color="#FEFEFE"/>
<stop offset="0.4125" stop-color="#F8F8F8"/>
<stop offset="1" stop-color="#F6F6F6"/>
</linearGradient>
<linearGradient id="paint16_linear_1_3" x1="42.982" y1="15.842" x2="53.8185" y2="15.842" gradientUnits="userSpaceOnUse">
<stop stop-color="white"/>
<stop offset="0.0429" stop-color="#FEFEFE"/>
<stop offset="0.4125" stop-color="#F8F8F8"/>
<stop offset="1" stop-color="#F6F6F6"/>
</linearGradient>
<linearGradient id="paint17_linear_1_3" x1="58.4462" y1="18.4803" x2="61.9682" y2="18.4803" gradientUnits="userSpaceOnUse">
<stop stop-color="white"/>
<stop offset="0.0429" stop-color="#FEFEFE"/>
<stop offset="0.4125" stop-color="#F8F8F8"/>
<stop offset="1" stop-color="#F6F6F6"/>
</linearGradient>
<linearGradient id="paint18_linear_1_3" x1="66.549" y1="19.9059" x2="79.9818" y2="19.9059" gradientUnits="userSpaceOnUse">
<stop stop-color="white"/>
<stop offset="0.0429" stop-color="#FEFEFE"/>
<stop offset="0.4125" stop-color="#F8F8F8"/>
<stop offset="1" stop-color="#F6F6F6"/>
</linearGradient>
<linearGradient id="paint19_linear_1_3" x1="84.3392" y1="17.716" x2="95.3338" y2="17.716" gradientUnits="userSpaceOnUse">
<stop stop-color="white"/>
<stop offset="0.0429" stop-color="#FEFEFE"/>
<stop offset="0.4125" stop-color="#F8F8F8"/>
<stop offset="1" stop-color="#F6F6F6"/>
</linearGradient>
<linearGradient id="paint20_linear_1_3" x1="99.0324" y1="17.7158" x2="110.568" y2="17.7158" gradientUnits="userSpaceOnUse">
<stop stop-color="white"/>
<stop offset="0.0429" stop-color="#FEFEFE"/>
<stop offset="0.4125" stop-color="#F8F8F8"/>
<stop offset="1" stop-color="#F6F6F6"/>
</linearGradient>
<linearGradient id="paint21_linear_1_3" x1="114.116" y1="17.6708" x2="135.225" y2="17.6708" gradientUnits="userSpaceOnUse">
<stop stop-color="white"/>
<stop offset="0.0429" stop-color="#FEFEFE"/>
<stop offset="0.4125" stop-color="#F8F8F8"/>
<stop offset="1" stop-color="#F6F6F6"/>
</linearGradient>
<linearGradient id="paint22_linear_1_3" x1="137.068" y1="10.1426" x2="141.507" y2="10.1426" gradientUnits="userSpaceOnUse">
<stop stop-color="white"/>
<stop offset="0.0429" stop-color="#FEFEFE"/>
<stop offset="0.4125" stop-color="#F8F8F8"/>
<stop offset="1" stop-color="#F6F6F6"/>
</linearGradient>
<clipPath id="clip0_1_3">
<rect width="142" height="37.9315" fill="white"/>
</clipPath>
</defs>
</svg>
